<svg version="1.2" xmlns="http://www.w3.org/2000/svg" viewBox="0 0 329 330" width="329" height="330"><style>.a{fill:#FFD700}</style><path class="a" d="m280.7 47.8c-21-1.9-42.6-0.9-63.7-0.9q-33.9 0-67.7 0c-45 0-90 0.1-135.1 0.3-2.3 0-2.3 3.7 0 3.7 44.3-0.3 88.6-0.2 132.8 0 44 0.1 88.8 2.9 132.7 0.1 2.5-0.2 2.5-3.7 0-3.9-42.7-2.7-86.2-0.1-129 0.1-45.5 0.2-91 0.3-136.5 0-2.3 0-2.3 3.7 0 3.7 43.7 0.2 87.4 0.3 131.1 0.3q33.9 0 67.7 0c22.5 0 45.4 1.2 67.7-0.9 1.7-0.1 1.7-2.4 0-2.5z"/><path class="a" d="m271.7 48.9c-47.6-1.9-79-51.9-128-48.5-17.8 1.3-35.6 12.6-41.7 29.9-7.6 21.7-0.6 43.7 14 60.6 13.3 15.2 36.5 26.8 54.6 13.1 10.7-8.1 21.1-29.1 6.7-38.7-9.3-6.2-24.5-5.2-30.2 5.3-6.1 11.3 7.5 22.2 17.9 17.3 4.2-2 4.6-7 3.6-11-0.9-3.8-6.4-2.1-5.7 1.6q-2.2 2.5-4.3 4.9-4.9-0.4-6.2-5.1c-1.1-2.8 0-5.2 1.9-7.2 3.5-3.6 9.6-4 14.2-3.8 9.9 0.5 12.7 9.9 10.6 18.3-2.8 11.6-14.1 20.6-25.6 21.5-18.3 1.5-35.4-16.2-43.9-30.4-10.3-17.1-10.6-38.4 0.3-55.1 20.1-31.1 62.7-16.4 87.8-1.8 24 14 45.3 30 74 30.1 0.7 0 0.7-1 0-1z"/><path class="a" d="m164.2 75.8c-2.1 3.9-6.6-1.6-5.2-4.7 0.7-1.6 2.4-2.5 3.9-3 1.6-0.5 3.9-0.7 5.3-1.6q0.5-0.4 0.4-1c-0.7-3.7-6.4-3.3-8.8-2.2-3.5 1.6-6 5-5.8 9 0.1 3.5 2.7 6.3 5.9 7.6 2.9 1.2 5.2-1.1 5.4-3.8 0.1-0.6-0.8-0.8-1.1-0.3z"/><path class="a" d="m164.6 75.4c-1 1-2.6 2-3.9 2.3-0.9 0.2-2.1 0-3.1-0.6-0.5-0.3-0.6-0.5-1.2-1.1 0.3 0.3-0.2-0.5-0.3-0.6 0.3 0.5-0.1-0.9 0-0.2-0.1-0.6 0-0.9 0.3-1.5 0.7-1.1 1.6-1.9 1.5-3.3-0.1-1.5-1.1-2.4-2.5-2.5-3.4-0.4-5.4 4.5-5.2 7.3 0.2 2.8 1.9 5.2 4.3 6.6 2.1 1.3 5.2 1.9 7.6 1 1.4-0.6 2.5-1.4 3.4-2.7 1-1.2 0.9-2.5 0.8-4-0.1-0.8-1.1-1.3-1.7-0.7z"/><path class="a" d="m161.4 81.8c-2.2 0.2-4.5-0.9-5.7-2.7-1-1.4-1.4-4.4-3.3-4.3-0.6 0-1.3 0.3-1.5 0.9-1.6 3.4 0 6.3 2.9 8.4 2.6 1.9 6.1 1.5 8.3-0.7 0.5-0.5 0.2-1.7-0.7-1.6z"/><path class="a" d="m160.1 83.8c-2.3-0.3-4.2-1.6-5.7-3.2-0.6-0.7-1.1-1.5-1.6-2.3-0.4-0.9-1.4-1.6-2-2.3-0.6-0.8-1.8-0.1-1.8 0.7 0 1.4 0 2.8 0.7 4 0.8 1.2 1.8 2.3 2.9 3.2 2.3 1.8 4.9 2.2 7.7 1.7 1.2-0.1 0.8-1.7-0.2-1.8z"/><path class="a" d="m124.2 7.6c10.8-3.2 24-1.8 33.6 4.1 7.4 4.5 9.8 14 4 21-3.6 4.3-9.9 5.5-15.1 4.5q-9.7-3.7-1.4-12c1.1-0.1 4.6 0.2 5 1.7 0.5 2.3 4 3.4 5.6 1.5 3.3-4 0.3-7.8-3.7-9.7-6.1-2.8-12-0.3-15.1 5.3-2.6 4.9-0.3 12.4 4.2 15.4 6.4 4.3 13.7 3.2 20.1-0.4 12.2-6.9 9.2-22.2-0.4-29.5-10-7.4-26.3-7.7-37.2-2.9-0.6 0.2-0.2 1.1 0.4 1z"/><path class="a" d="m156.7 37.4c-3.6 0.3-13.8-1-12.4-6.6 0.5-2.2 3.3-3.4 5.2-3.9 2-0.4 3.7 1 5.6 1.2 0.7 0.1 1.5-0.6 1.6-1.3 1.1-4.6-4.8-5.7-8.1-5.2-3.9 0.6-7.4 3.7-8.6 7.4-1.2 3.9 1.5 7.7 5 9.2 3.8 1.6 7.9 1.1 11.9 0.5 0.7-0.2 0.5-1.3-0.2-1.3z"/><path class="a" d="m100 49.1c0.2 13.3 9.1 30.7 22.8 34.5 6.2 1.7 13.5-0.8 14.9-7.7 1.4-6.4-5.2-14.2-12-13.3-4.8 0.6-4.8 6.9 0 7.6 2 0.2 3.4 1.6 4.3 3.2 2 3.4-0.3 6.1-3.6 7.2-5.4 1.8-10.3-2.8-13.6-6.4-6-6.6-10.7-16.5-12-25.3 0-0.5-0.8-0.3-0.8 0.2z"/><path class="a" d="m248.4 46.3c-14.1-9.4-35.5-19.7-51.3-8.6-10.3 7.1-10.4 24.6-5.6 34.6 5.7 11.8 23.4 14.9 30.6 3.1 8.1-13.3-15.4-20.3-23.7-12-3 3 0.9 8.2 4.6 5.9 3.4-2.2 6.7-2.9 10.6-1q2 10.7-7.2 11c-3.6 0.3-6.9-1.8-9.4-4.1-6.6-5.9-6.9-16.6-4.9-24.4 6.8-26.3 40.4-7 55.3-2.2 1.4 0.5 2.2-1.5 1-2.3z"/><path class="a" d="m208.4 81c6.1 0.3 9.8-5.1 7.8-10.8-1.9-5.5-8.4-9.3-14-7.1-1.6 0.6-2.8 1.7-3.4 3.3-0.4 1.1 0.1 2.8 1.5 3 2.3 0.4 4.8-1.2 7.1-0.1 1.8 0.8 3.3 2.4 3.9 4.4 0.6 2.5-1.7 4.7-3.4 6.2-0.4 0.4 0 1.1 0.5 1.1z"/><path class="a" d="m171.6 102.7c3.6-2.3 12.9-5.2 14.8 0.7 0.4 1.2-0.5 2.9-1.3 3.7-1.1 1.1-0.9 0.3-1.3-0.6-2.1-4.7-9-0.7-6.9 4 4.4 9.6 18.7 3.2 16.5-6.3-1-4.3-5.4-8-9.7-8.4-5.4-0.6-9.3 2.4-12.6 6.3-0.3 0.3 0.1 0.9 0.5 0.6z"/><path class="a" d="m166.4 21.4c-1.2 10.6 9.4 21.3 20.1 16.4 4.1-1.8 5.5-7.1 4.1-11.2-1.8-4.9-6.8-7.4-11.9-6.7-1.7 0.3-2.8 2.2-2.8 3.8 0 2.3 1.8 3.6 3.9 3.9 3.5 0.4 5 3.1 1.8 5.1-2.9 1.8-6.7-0.1-8.9-2.1-2.6-2.3-4.4-6-5-9.4-0.1-0.8-1.2-0.5-1.3 0.2z"/><path class="a" d="m117.1 10.3c-8.9 5.4-13.7 14.7-11.9 25.2 1.4 7.8 9 15.4 17.3 11.8 6.7-2.9 12.8-12.1 8.5-19.3-4.4-7.5-17.7-7.8-20 1.7-0.9 4.1 5.1 7 7 3 2.8-5.8 6.6-0.8 6.5 2.8-0.2 5.2-4.4 9.6-9.8 8.7-6.9-1-7.6-12.2-6.8-17.2 1-6.2 5.3-11.8 9.9-15.9 0.4-0.4-0.2-1.1-0.7-0.8z"/><path class="a" d="m141.8 105.9c-1.7-1.3-2.6-3.7-2.8-5.8 0-2 1.5-3.9 3.6-3.5 0 0 1 0.4 0.7 0.2-0.5-0.3 0.5 0.5 0-0.1q0.4 0.4 0.7 0.9c0.5 0.9-0.2-0.6 0.1 0.4 0.3 1 0-0.8 0 0.2 0 0.8 0.2-0.5 0.3-0.7 0.3-0.6 0.4-0.5 0-0.1-0.6 0.5-0.9 1.2-1.1 1.9-0.5 1.2 0.1 2.8 0.9 3.6 2.2 2.2 5.2 1.2 6.8-1 1.1-1.5 1.2-3.6 0.8-5.4-0.8-3.9-4.3-6.9-8.3-6.4-4.6 0.4-7.9 4-8.3 8.5-0.3 4 2.5 7 6 8.4 0.6 0.2 1.1-0.7 0.6-1.1z"/><path class="a" d="m189.3 51.3c-0.5 2.6-3.4 4.6-5.8 5.4q-0.6 0.2-1.3 0.2c-0.3 0.1-1 0-0.8 0 0.4 0.2 0.4 0.6 0.5 0.9-0.1-0.8 0-1.1 0.1-2.1 0.6-4.9-8-5.2-7.8 0 0.1 5.6 4.9 8 9.6 5.8 2-0.9 3.5-2.6 4.8-4.3 1.4-1.9 1.6-3.6 1.6-5.8 0-0.5-0.8-0.6-0.9-0.1z"/><path class="a" d="m151.7 50.4c-2.5-3.4-7.3-2.4-10.4-0.8-3.9 1.9-6.9 6.1-5.4 10.5 1.3 3.8 5.9 5.9 9.7 5.6 5.6-0.4 8.3-6.4 4.6-10.7-2.9-3.4-8.6 1-6.2 4.7 0.5 0.8 0.3 1.2 0.2-0.3-0.1-0.5 0.8-1.6 0.3-1.1 0.6-0.6-0.4 0.1-0.5 0.2-0.5 0.2-0.9 0.5-1.4 0.7-1.3 0.6-2.5-0.2-2.3-1.9 0.7-3.9 7.5-5.7 10.8-5.9 0.5 0 0.9-0.6 0.6-1z"/><path class="a" d="m101.2 52.4c3.8-0.8 8.8 0 12.2 2 1.5 0.9 2.7 2.7 1.6 4.4-0.5 0.6-1.6 0.7-1.3 1.2-2.8-4.2-9.6-0.2-6.8 4 5.6 8 17.7 0.4 13.4-8.2-3.3-6.7-14-8.6-19.5-4-0.3 0.2 0 0.7 0.4 0.6z"/><path class="a" d="m138.4 2.9c-22.3-3-35.8 11.7-46.5 29.3-11 18.3-17.5 42.7-10.3 63.5 2.3 6.7 7.4 12.6 14.8 12.9 6.5 0.3 7-7 6.4-11.6-0.7-4.4-4.6-8.7-7.2-12.1-4.7-6.4-5.8-13.5-5.9-21.4-0.1-14.8 7.5-26.2 11.3-39.9 0.2-0.6-0.6-1.1-1-0.7-9.2 10.3-13.4 27.3-14.4 40.6-0.5 6 0.2 13.9 3.1 19.3 1.8 3.2 3.8 6.2 5.8 9.2q3.2 4 1 9.4c-4-1-5.9-5.2-7.5-8.4-9.9-18.8-4.3-38.4 5.1-56.2 4.3-8.1 9.8-16 16.4-22.4 7.8-7.6 18.5-9.1 28.9-10.5 0.7-0.1 0.7-1 0-1z"/><path class="a" d="m87.4 46.3c-7.5 10.3-9.4 24.5-8.4 36.9 0.7 7.8 5.1 25.4 15.7 24.6 1.2-0.1 2.1-1 1.7-2.2-1-3.6-3.9-5.8-6-9-3.5-5.3-4.6-12.1-5.1-18.3-0.8-10.7 1.1-21.1 3.5-31.4 0.3-0.9-0.9-1.3-1.4-0.6z"/><path class="a" d="m97.7 104.4c-2.5-6.4-6.8-11.7-9.1-18.2-2.5-7.4-1.6-15.4-3.7-22.8-0.3-1-1.7-1.2-2.2-0.3-7.2 12.1-0.6 37.9 13.4 42.9 0.8 0.3 1.9-0.7 1.6-1.6z"/><path class="a" d="m125.7 5.5c-17.4-1.9-30.2 17.8-34.7 32.3-0.3 0.8 0.7 1.4 1.3 0.8 5.4-5.3 7.8-13 12.4-18.9 5.4-7 13.2-10.2 21.2-13.1 0.5-0.3 0.4-1-0.2-1.1z"/><path class="a" d="m112.2 9c-12.5 5-20.8 15.5-27.8 26.6-9.3 15-13.3 33.7-24.1 47.5-5.7 7.3-6.9-2.2-6-7.4 0.8-4.8 3.5-9.3 5.8-13.5 4.1-7.2 8.5-14.4 13.3-21.2 5.8-8.3 13.6-15 22.3-20.1 4.9-2.9 14.5-4.2 17.5-9.4 0.3-0.5-0.1-1.5-0.8-1.4-17.9 2.3-32.2 14.8-42.6 28.8-8.9 11.9-25 34-17.8 49.7 5.1 11 19.3-18.5 19.7-19.6 10-22.3 19.7-45 41.1-58.6 0.7-0.5 0.2-1.7-0.6-1.4z"/><path class="a" d="m104.6 13.5c-13.9 5.4-24.2 17-32.6 28.9-4.7 6.8-8.3 14.2-11.6 21.8-3.1 7.1-7.2 15-7.3 22.9 0 2.4 3.7 3.7 4.9 1.3 6.5-13.2 10.4-27.3 18.2-40 7.9-13.1 18.8-22.8 28.9-33.9 0.4-0.4 0.1-1.2-0.5-1z"/><path class="a" d="m57.1 87.1c1.4-6.4 2-12.7 4.2-18.9 2.2-6.4 5.4-11.8 6.5-18.5 0.1-1.1-1-1.9-1.8-1.1-9.4 8.8-17.3 26.3-11.4 38.8 0.5 1.1 2.2 0.8 2.5-0.3z"/><path class="a" d="m141.2 4.7c-23.6-6.9-50.9 10.8-73 17.9-4.4 1.5-10 3.4-14.7 2.6-3.8-0.6 7.1-8.4 8-8.8 3.4-1.8 7.2-3 10.9-4.2 18.9-6.1 39-2.8 57.9-8.1 0.8-0.3 0.6-1.4-0.2-1.4-21.8-2.1-45.7-0.1-66.2 8.2-2.6 1.1-24 13.9-12.2 17.8 10.2 3.2 25.4-4.9 34.6-8.4 17.7-6.7 35.5-14.7 54.8-14.9 0.4 0 0.5-0.6 0.1-0.7z"/><path class="a" d="m125 4.2c-13.3-3.6-28.4 1.5-41.2 5-8.1 2.3-30.8 5.6-33.5 15.4-0.3 1.1 0.6 2.3 1.8 2.3 4.8 0.1 9.8-3.4 14.2-5 6.3-2.2 12.9-3.9 19.4-5.7 13.1-3.5 26.2-6.7 39.3-10.3 0.9-0.2 0.9-1.5 0-1.7z"/><path class="a" d="m55 24.6c3.9-2.2 7.4-5.1 11-7.7 3.9-2.7 8.5-4.6 13-6 0.8-0.2 0.9-1.5 0-1.7-11.3-2.3-18.4 5.7-26.2 12.6-1.5 1.4 0.5 3.7 2.2 2.8z"/><path class="a" d="m-0.6 49.4c0 0 44.8-7 48.7-7 3.8 0 7 3.1 7 7 0 3.9-3.2 7-7 7-3.9 0-48.7-7-48.7-7z"/><path class="a" d="m280.9 48.8c1.9 21.1 0.8 42.6 0.8 63.7q0.1 33.9 0.1 67.7c0 45-0.1 90.1-0.4 135.1 0 2.3-3.6 2.3-3.6 0 0.3-44.3 0.2-88.5 0-132.8-0.2-44-2.9-88.8-0.1-132.7 0.2-2.5 3.7-2.5 3.8 0 2.8 42.7 0.1 86.2 0 129-0.2 45.5-0.3 91-0.1 136.5 0.1 2.3-3.6 2.3-3.6 0-0.3-43.7-0.3-87.4-0.4-131.1q0-33.8 0.1-67.7c0-22.5-1.2-45.3 0.9-67.7 0.1-1.7 2.3-1.7 2.5 0z"/><path class="a" d="m279.8 57.8c1.9 47.6 51.9 79 48.4 128-1.2 17.9-12.5 35.6-29.9 41.7-21.6 7.6-43.6 0.6-60.5-14-15.2-13.2-26.8-36.5-13.1-54.6 8.1-10.7 29-21.1 38.7-6.7 6.2 9.3 5.2 24.5-5.3 30.2-11.3 6.2-22.2-7.5-17.3-17.8 2-4.3 7-4.6 10.9-3.7 3.8 0.9 2.2 6.4-1.5 5.8q-2.5 2.1-4.9 4.2 0.4 5 5 6.2c2.9 1.1 5.3 0 7.3-1.9 3.5-3.5 4-9.6 3.8-14.2-0.5-9.9-10-12.7-18.3-10.6-11.6 2.8-20.6 14.1-21.6 25.6-1.5 18.3 16.2 35.4 30.5 44 17 10.2 38.4 10.5 55.1-0.4 31.1-20.1 16.3-62.7 1.7-87.8-13.9-24-30-45.3-30-74 0-0.7 1-0.7 1 0z"/><path class="a" d="m252.9 165.3c-3.9 2.1 1.6 6.6 4.7 5.2 1.6-0.7 2.5-2.4 3-3.9 0.5-1.6 0.7-3.9 1.6-5.3q0.4-0.5 1-0.4c3.6 0.7 3.3 6.4 2.2 8.8-1.7 3.5-5.1 6-9 5.8-3.5-0.1-6.3-2.7-7.6-5.9-1.2-2.9 1.1-5.1 3.8-5.4 0.6-0.1 0.8 0.8 0.3 1.1z"/><path class="a" d="m253.2 165c-0.9 0.9-2 2.5-2.2 3.8-0.2 1 0 2.1 0.6 3.1 0.3 0.5 0.5 0.7 1.1 1.2-0.3-0.3 0.5 0.2 0.6 0.3-0.6-0.3 0.9 0.1 0.2 0 0.6 0.1 0.9 0 1.5-0.3 1.1-0.7 1.9-1.6 3.3-1.4 1.5 0.1 2.3 1 2.5 2.4 0.4 3.4-4.6 5.4-7.3 5.2-2.9-0.2-5.2-1.9-6.6-4.3-1.4-2.1-1.9-5.2-1-7.6 0.6-1.4 1.4-2.5 2.6-3.4 1.3-1 2.5-0.9 4-0.8 0.9 0.1 1.4 1.1 0.7 1.8z"/><path class="a" d="m246.9 168.1c-0.2 2.2 0.9 4.5 2.7 5.8 1.4 0.9 4.4 1.3 4.3 3.3-0.1 0.5-0.3 1.2-0.9 1.4-3.4 1.6-6.3 0-8.5-2.9-1.9-2.6-1.4-6.1 0.8-8.3 0.5-0.5 1.7-0.2 1.6 0.7z"/><path class="a" d="m244.9 169.4c0.2 2.3 1.5 4.2 3.2 5.7 0.7 0.6 1.5 1.1 2.3 1.6 0.8 0.4 1.5 1.4 2.3 2 0.8 0.6 0.1 1.8-0.7 1.8-1.4 0-2.9 0-4-0.7-1.3-0.8-2.3-1.7-3.2-2.9-1.8-2.3-2.2-4.8-1.8-7.7 0.2-1.2 1.8-0.7 1.9 0.2z"/><path class="a" d="m321.1 205.3c3.1-10.8 1.8-24-4.1-33.6-4.6-7.4-14.1-9.8-21-4-4.3 3.6-5.6 9.9-4.5 15.1q3.7 9.7 12 1.4c0-1-0.2-4.6-1.7-5-2.3-0.5-3.4-4-1.5-5.6 4-3.3 7.8-0.3 9.7 3.7 2.8 6.1 0.3 12-5.4 15.1-4.9 2.6-12.4 0.3-15.4-4.2-4.2-6.4-3.1-13.7 0.5-20.1 6.8-12.2 22.2-9.2 29.4 0.5 7.5 9.9 7.8 26.2 3 37.1-0.3 0.6-1.2 0.2-1-0.4z"/><path class="a" d="m291.2 172.8c-0.3 3.6 1.1 13.8 6.7 12.4 2.2-0.5 3.4-3.3 3.8-5.2 0.5-2-0.9-3.7-1.1-5.6-0.1-0.7 0.6-1.5 1.2-1.6 4.7-1.1 5.7 4.8 5.2 8.1-0.5 3.9-3.6 7.4-7.3 8.6-3.9 1.2-7.7-1.5-9.2-5-1.6-3.8-1.2-7.9-0.5-11.9 0.1-0.7 1.3-0.5 1.2 0.2z"/><path class="a" d="m279.6 229.5c-13.3-0.2-30.8-9.1-34.5-22.7-1.7-6.3 0.8-13.6 7.6-15 6.5-1.4 14.3 5.2 13.4 12-0.7 4.9-7 4.9-7.6 0-0.3-2-1.6-3.3-3.2-4.3-3.5-2-6.1 0.3-7.2 3.7-1.8 5.3 2.8 10.2 6.4 13.5 6.5 6 16.5 10.7 25.2 12 0.5 0.1 0.4 0.9-0.1 0.8z"/><path class="a" d="m282.4 81.1c9.3 14.1 19.7 35.6 8.6 51.3-7.2 10.3-24.6 10.4-34.7 5.6-11.7-5.7-14.8-23.4-3-30.6 13.3-8.1 20.3 15.4 12 23.7-3 3-8.2-0.9-5.9-4.6 2.1-3.4 2.9-6.7 1-10.6q-10.7-2-11 7.2c-0.3 3.6 1.8 6.9 4.1 9.4 5.8 6.6 16.5 6.9 24.4 4.9 26.3-6.8 7-40.4 2.2-55.3-0.5-1.4 1.5-2.1 2.3-1z"/><path class="a" d="m247.6 121.1c-0.2-6.1 5.2-9.8 10.8-7.8 5.6 1.9 9.4 8.4 7.2 14.1-0.6 1.5-1.7 2.7-3.3 3.3-1.1 0.4-2.9-0.1-3.1-1.4-0.3-2.4 1.2-4.8 0.2-7.1-0.8-1.9-2.4-3.4-4.4-4-2.6-0.6-4.8 1.7-6.3 3.4-0.3 0.4-1.1 0-1.1-0.5z"/><path class="a" d="m225.9 157.9c2.3-3.6 5.3-12.8-0.6-14.8-1.3-0.4-2.9 0.5-3.7 1.3-1.2 1.1-0.3 0.9 0.6 1.3 4.7 2.2 0.6 9.1-4 6.9-9.6-4.4-3.3-18.6 6.3-16.5 4.3 1 8 5.4 8.4 9.7 0.6 5.4-2.4 9.4-6.3 12.6-0.4 0.3-0.9-0.1-0.7-0.5z"/><path class="a" d="m307.3 163.1c-10.6 1.2-21.3-9.4-16.5-20.1 1.9-4.1 7.2-5.5 11.2-4 5 1.7 7.5 6.8 6.8 11.8-0.3 1.7-2.2 2.8-3.8 2.8-2.3 0-3.6-1.8-3.9-3.9-0.5-3.5-3.2-4.9-5.1-1.8-1.8 2.9 0.1 6.7 2 8.9 2.4 2.6 6.1 4.4 9.5 5 0.7 0.2 0.4 1.2-0.2 1.3z"/><path class="a" d="m318.4 212.4c-5.4 8.9-14.8 13.8-25.3 11.9-7.8-1.4-15.4-9-11.7-17.3 2.9-6.7 12-12.8 19.3-8.5 7.5 4.4 7.7 17.7-1.7 20-4.1 0.9-7-5.1-3-7 5.8-2.8 0.7-6.6-2.8-6.5-5.3 0.2-9.6 4.5-8.8 9.8 1.1 6.9 12.2 7.6 17.2 6.8 6.3-1 11.8-5.3 16-9.9 0.4-0.4 1.1 0.2 0.8 0.7z"/><path class="a" d="m222.7 187.7c1.4 1.7 3.7 2.7 5.9 2.8 2 0.1 3.9-1.4 3.5-3.6 0 0-0.4-1-0.2-0.7 0.2 0.5-0.5-0.5 0.1 0q-0.5-0.4-0.9-0.6c-0.9-0.6 0.6 0.1-0.4-0.2-1-0.3 0.8 0-0.2 0-0.8 0 0.5-0.2 0.7-0.3 0.6-0.2 0.4-0.4 0.1 0-0.5 0.6-1.2 0.9-1.9 1.2-1.2 0.4-2.8-0.1-3.6-1-2.2-2.1-1.2-5.2 1-6.8 1.5-1.1 3.6-1.1 5.3-0.8 4 0.8 6.9 4.3 6.5 8.3-0.5 4.6-4 8-8.5 8.3-4 0.3-7.1-2.5-8.4-6-0.2-0.6 0.6-1.1 1-0.6z"/><path class="a" d="m277.4 140.2c-2.6 0.5-4.7 3.5-5.4 5.8q-0.2 0.6-0.3 1.3c0 0.3 0.1 1 0 0.8-0.2-0.4-0.5-0.4-0.9-0.4 0.8 0.1 1.2-0.1 2.2-0.2 4.9-0.6 5.1 8 0 7.9-5.6-0.2-8-4.9-5.9-9.7 0.9-2 2.7-3.5 4.4-4.8 1.9-1.4 3.5-1.6 5.8-1.5 0.4 0 0.6 0.7 0.1 0.8z"/><path class="a" d="m278.3 177.8c3.4 2.5 2.4 7.3 0.8 10.5-1.9 3.8-6.1 6.8-10.5 5.3-3.8-1.3-6-5.9-5.7-9.7 0.5-5.6 6.5-8.3 10.8-4.6 3.4 3-1 8.6-4.8 6.2-0.8-0.5-1.2-0.3 0.3-0.2 0.6 0.1 1.7-0.8 1.2-0.3 0.5-0.5-0.1 0.4-0.2 0.5-0.2 0.5-0.5 0.9-0.7 1.4-0.6 1.3 0.2 2.6 1.8 2.3 4-0.7 5.8-7.5 5.9-10.8 0.1-0.5 0.6-0.9 1.1-0.6z"/><path class="a" d="m276.2 228.3c0.8-3.8 0.1-8.8-1.9-12.2-1-1.5-2.8-2.6-4.4-1.5-0.6 0.4-0.7 1.5-1.2 1.2 4.2 2.8 0.2 9.7-4 6.8-8-5.6-0.4-17.7 8.2-13.4 6.6 3.4 8.6 14 4 19.5-0.3 0.3-0.7 0-0.7-0.4z"/><path class="a" d="m325.8 191.1c3 22.3-11.7 35.9-29.3 46.5-18.3 11-42.7 17.5-63.6 10.3-6.7-2.3-12.5-7.4-12.8-14.8-0.3-6.5 7-7 11.6-6.4 4.4 0.7 8.6 4.7 12 7.2 6.5 4.7 13.5 5.8 21.4 5.9 14.9 0.1 26.3-7.5 40-11.3 0.6-0.2 1.1 0.6 0.6 1-10.2 9.2-27.2 13.5-40.6 14.4-6 0.5-13.8-0.2-19.2-3.1-3.2-1.8-6.2-3.8-9.3-5.8q-4-3.2-9.3-1c0.9 4 5.1 5.9 8.3 7.5 18.9 9.9 38.5 4.3 56.3-5.1 8.1-4.3 16-9.8 22.3-16.4 7.7-7.8 9.2-18.5 10.6-28.9 0-0.7 0.9-0.7 1 0z"/><path class="a" d="m282.4 242.1c-10.3 7.5-24.5 9.4-36.9 8.4-7.9-0.7-25.5-5.1-24.6-15.7 0-1.1 1-2.1 2.2-1.7 3.6 1 5.8 3.9 9 6 5.3 3.5 12.1 4.6 18.3 5.1 10.6 0.8 21.1-1.1 31.3-3.5 1-0.2 1.4 0.9 0.7 1.4z"/><path class="a" d="m224.3 231.9c6.3 2.4 11.6 6.7 18.2 9 7.4 2.5 15.3 1.6 22.8 3.7 1 0.3 1.2 1.7 0.3 2.2-12.1 7.2-38 0.6-42.9-13.3-0.3-0.9 0.7-2 1.6-1.6z"/><path class="a" d="m323.1 203.8c2 17.4-17.7 30.2-32.3 34.8-0.8 0.2-1.3-0.8-0.8-1.4 5.4-5.4 13-7.8 19-12.4 7-5.4 10.2-13.2 13.1-21.2 0.2-0.5 1-0.4 1 0.2z"/><path class="a" d="m319.7 217.3c-5 12.5-15.5 20.8-26.6 27.8-15 9.4-33.7 13.3-47.6 24.1-7.2 5.7 2.3 6.9 7.5 6 4.8-0.8 9.3-3.5 13.4-5.8 7.3-4.1 14.5-8.5 21.3-13.3 8.2-5.8 15-13.6 20.1-22.3 2.8-4.9 4.2-14.5 9.4-17.5 0.5-0.3 1.4 0.1 1.3 0.8-2.3 17.9-14.8 32.2-28.7 42.6-11.9 8.9-34 25-49.7 17.8-11-5.1 18.5-19.3 19.5-19.7 22.3-10 45.1-19.7 58.7-41.1 0.4-0.7 1.7-0.2 1.4 0.6z"/><path class="a" d="m315.2 224.9c-5.4 13.9-17.1 24.2-29 32.6-6.7 4.7-14.2 8.3-21.7 11.6-7.1 3.1-15 7.3-22.9 7.3-2.5 0-3.7-3.7-1.3-4.9 13.2-6.5 27.3-10.4 40-18.1 13-8 22.8-18.8 33.9-29 0.4-0.4 1.2 0 1 0.5z"/><path class="a" d="m241.6 272.4c6.3-1.4 12.7-2 18.9-4.1 6.3-2.3 11.8-5.5 18.5-6.6 1-0.1 1.8 1 1 1.8-8.7 9.4-26.2 17.3-38.7 11.5-1.1-0.5-0.8-2.3 0.3-2.6z"/><path class="a" d="m324 188.3c6.9 23.6-10.8 50.9-18 73-1.4 4.4-3.4 10-2.6 14.7 0.7 3.8 8.4-7.1 8.9-7.9 1.7-3.5 2.9-7.3 4.1-11 6.2-18.9 2.8-39 8.2-57.9 0.2-0.8 1.3-0.5 1.4 0.2 2.1 21.8 0.1 45.7-8.2 66.2-1.1 2.6-14 24-17.8 12.2-3.3-10.2 4.9-25.4 8.4-34.6 6.7-17.7 14.6-35.5 14.8-54.8 0-0.4 0.7-0.5 0.8-0.1z"/><path class="a" d="m324.5 204.5c3.5 13.3-1.5 28.4-5.1 41.2-2.2 8.1-5.5 30.8-15.3 33.5-1.2 0.4-2.3-0.6-2.3-1.8-0.1-4.8 3.3-9.8 4.9-14.2 2.3-6.3 4-12.9 5.8-19.4 3.5-13.1 6.7-26.2 10.2-39.3 0.3-0.9 1.6-0.9 1.8 0z"/><path class="a" d="m304.1 274.6c2.2-4 5-7.5 7.6-11.1 2.8-3.9 4.6-8.5 6.1-13 0.2-0.8 1.5-0.9 1.7 0 2.2 11.3-5.8 18.5-12.6 26.2-1.4 1.5-3.7-0.4-2.8-2.1z"/><path class="a" d="m279.3 330.1c0 0 7-44.8 7-48.7 0-3.8-3.1-7-7-7-3.9 0-7 3.2-7 7 0 3.9 7 48.7 7 48.7z"/></svg>