<svg version="1.2" xmlns="http://www.w3.org/2000/svg" viewBox="0 0 262 38" width="262" height="38"><style>.a{fill:#FFD700}</style><path class="a" d="m128.6 17.5c-15.6-0.9-31.3-0.4-46.9-0.4-15.6-0.1-31.7-1.5-47.1 0.9-0.7 0.1-0.7 1.4 0 1.5 14.1 2.2 29 1.2 43.2 1 16.9-0.3 33.9 0.5 50.8-0.5 1.6-0.1 1.6-2.4 0-2.5z"/><path class="a" d="m69.7 17.1c-8.5-10-30.6-21.1-43.9-15.4-1.1 0.5-0.8 2 0 2.6 12.4 8.4 25.7 17.3 41.7 14.8 0.9-0.2 0.9-1.5 0-1.7-7-1.1-14.1-1.8-21.1-3.6-7.1-1.9-13.3-7.8-19.1-12.1q-0.2 1.4-0.4 2.7c6.5-2.6 14.6 0.4 21 2.2 8.1 2.4 14.5 6.4 21.1 11.4 0.6 0.4 1.1-0.4 0.7-0.9z"/><path class="a" d="m69.3 17.6c-6.3-3.5-13.1-6.1-19.9-8.7-6.2-2.3-13.5-5.6-20.1-6.3-0.5 0-0.9 0.8-0.4 1.1 4.6 4.1 11.6 5 17.4 6.8 7.6 2.3 14.8 6.5 22.6 7.9 0.5 0.1 0.9-0.5 0.4-0.8z"/><path class="a" d="m44.7 15.6c-11.4-4.4-27.1-8.6-37.3 0.5-0.5 0.4-0.4 1.2 0.2 1.5 13.2 6.6 26.7 2.9 40.7 1.5 0.6 0 0.9-1.1 0.2-1.2-11.7-1.7-23.4 3.1-34.9 0.2-7.1-1.8 0.3-3.4 2.5-4.1 3.6-1.1 7.4-1 11-0.9 5.9 0.2 11.7 1.7 17.3 3.3 0.6 0.1 0.7-0.6 0.3-0.8z"/><path class="a" d="m49.3 16.9c-13.4 0.6-26.6-4.7-40-1.9-1.1 0.3-0.9 2.1 0.3 2 7.9-0.5 16 0.4 23.9 1.3 5.5 0.6 10.9 1.8 16-0.8 0.3-0.1 0.1-0.6-0.2-0.6z"/><path class="a" d="m43.2 16.3c3.2 1.1 6.1 2.7 9.5 3.3 0.4 0.1 0.7-0.5 0.3-0.7-3.1-1.5-6.2-2.7-9.5-3.7-0.8-0.2-1 0.9-0.3 1.1z"/><path class="a" d="m68.1 18.8c-7 12-25.6 16.4-38.8 16.1q0.6 1 1.1 2c4.7-9.8 14.2-11.4 22.4-16.9 0.5-0.3 0.3-1.1-0.2-1.1-9.4 0-20.5 8.5-24.4 16.7-0.5 0.9 0 1.9 1.1 2 8.1 0.1 16.2-2.7 23.9-5 6.8-2.1 12.6-7.1 15.8-13.4 0.3-0.5-0.5-1-0.9-0.4z"/><path class="a" d="m30.1 36.2c5.8-0.4 10.4-3.8 15.4-6.5 6-3.3 12.9-5.2 18.1-9.6 0.2-0.1 0-0.3-0.1-0.2-11.1 5.6-22.5 10-33.7 15.4-0.4 0.2-0.2 1 0.3 0.9z"/><path class="a" d="m38.8 18.3c-9.2-0.2-20.7 4.7-24.9 13.4-0.4 0.9 0.2 1.8 1.2 1.6 6.8-1.5 15.4-0.7 21-5.5 0.4-0.3 0-0.8-0.4-0.8-7 1.6-13.7 3.3-20.9 4.2q0.4 0.9 0.8 1.8c6.7-6.5 13.4-12.4 23.2-13.3 0.8-0.1 0.9-1.3 0-1.4z"/><path class="a" d="m16.1 32.8c7.2-4.5 16-6.4 22.9-11.3 0.3-0.2 0.1-0.6-0.3-0.6-8.2 1.6-16.7 5.7-23.2 10.8-0.7 0.5-0.1 1.6 0.6 1.1z"/><path class="a" d="m31.6 25.2c4.3-2.3 8.9-4 13.4-5.9 0.3-0.2 0.1-0.6-0.2-0.6-5.4-0.6-9.6 2.7-13.8 5.6-0.5 0.4 0 1.2 0.6 0.9z"/><path class="a" d="m24.8 20.5c-6.7 0.8-13 0.9-19.7 0.8-0.5 0-0.7 0.6-0.3 0.8 6.2 3.1 13.9 0.6 20.1-1.1 0.3 0 0.2-0.6-0.1-0.5z"/><path class="a" d="m1.6 23.8q0.3 0.1 0.5 0.3c-0.3-0.2 0.2 0 0.3 0.1 1 1 2.2 1.1 3.5 0.8 1.7-0.4 2.7-2.4 2.3-4-0.5-1.9-2.3-2.6-4.1-2.3q-1 0.1-1.7 0.9-0.3 0.3-0.5 0.6 0.4-0.5 0-0.1 0.6-0.4 1.1-0.7 0.3 0-0.2 0c-2.4 0-3.2 3.2-1.2 4.4z"/><path class="a" d="m24.2 19.5c-3.6 1.7-7.3 3-10.8 5-2.4 1.5-6.2 3.9-6.2 7 0 0.3 0.3 0.4 0.5 0.3 2.8-1.4 5-4.1 7.7-5.7 3.1-2 6.3-3.8 9.5-5.6 0.7-0.4 0-1.3-0.7-1z"/><path class="a" d="m6.8 36.1c1.9 0 3.4-1.5 3.4-3.4 0-1.8-1.5-3.3-3.4-3.3-1.8 0-3.4 1.5-3.4 3.3 0 1.9 1.6 3.4 3.4 3.4z"/><path class="a" d="m133.4 17.5c15.6-0.9 31.3-0.4 46.9-0.4 15.6-0.1 31.7-1.5 47.1 0.9 0.7 0.1 0.7 1.4 0 1.5-14.1 2.2-29 1.2-43.2 1-16.9-0.3-33.9 0.5-50.8-0.5-1.6-0.1-1.6-2.4 0-2.5z"/><path class="a" d="m192.3 17.1c8.5-10 30.6-21.1 43.9-15.4 1.1 0.5 0.8 2 0 2.6-12.4 8.4-25.7 17.3-41.7 14.8-0.9-0.2-0.9-1.5 0-1.7 7-1.1 14.1-1.8 21.1-3.6 7.1-1.9 13.3-7.8 19.1-12.1q0.2 1.4 0.4 2.7c-6.5-2.6-14.6 0.4-21 2.2-8.1 2.4-14.5 6.4-21.1 11.4-0.6 0.4-1.1-0.4-0.7-0.9z"/><path class="a" d="m192.7 17.6c6.3-3.5 13.1-6.1 19.9-8.7 6.2-2.3 13.5-5.6 20.1-6.3 0.5 0 0.9 0.8 0.4 1.1-4.6 4.1-11.6 5-17.4 6.8-7.6 2.3-14.8 6.5-22.6 7.9-0.5 0.1-0.9-0.5-0.4-0.8z"/><path class="a" d="m217.3 15.6c11.4-4.4 27.1-8.6 37.3 0.5 0.5 0.4 0.4 1.2-0.2 1.5-13.2 6.6-26.7 2.9-40.7 1.5-0.6 0-0.9-1.1-0.2-1.2 11.7-1.7 23.4 3.1 34.9 0.2 7.1-1.8-0.3-3.4-2.5-4.1-3.6-1.1-7.4-1-11-0.9-5.9 0.2-11.7 1.7-17.3 3.3-0.6 0.1-0.7-0.6-0.3-0.8z"/><path class="a" d="m212.7 16.9c13.4 0.6 26.6-4.7 40-1.9 1.1 0.3 0.9 2.1-0.3 2-7.9-0.5-16 0.4-23.9 1.3-5.5 0.6-10.9 1.8-16-0.8-0.3-0.1-0.1-0.6 0.2-0.6z"/><path class="a" d="m218.8 16.3c-3.2 1.1-6.1 2.7-9.5 3.3-0.4 0.1-0.7-0.5-0.3-0.7 3.1-1.5 6.2-2.7 9.5-3.7 0.7-0.2 1 0.9 0.3 1.1z"/><path class="a" d="m193.9 18.8c7 12 25.6 16.4 38.8 16.1q-0.6 1-1.1 2c-4.7-9.8-14.2-11.4-22.4-16.9-0.5-0.3-0.3-1.1 0.2-1.1 9.4 0 20.5 8.5 24.4 16.7 0.4 0.9-0.1 1.9-1.1 2-8.1 0.1-16.2-2.7-23.9-5-6.8-2.1-12.6-7.1-15.8-13.4-0.3-0.5 0.5-1 0.9-0.4z"/><path class="a" d="m231.9 36.2c-5.8-0.4-10.4-3.8-15.4-6.5-6-3.3-12.9-5.2-18.1-9.6-0.2-0.1 0-0.3 0.1-0.2 11.1 5.6 22.5 10 33.7 15.4 0.4 0.2 0.2 1-0.3 0.9z"/><path class="a" d="m223.2 18.3c9.2-0.2 20.7 4.7 24.9 13.4 0.4 0.9-0.2 1.8-1.2 1.6-6.8-1.5-15.4-0.7-21-5.5-0.4-0.3 0-0.8 0.4-0.8 7 1.6 13.7 3.3 20.9 4.2q-0.4 0.9-0.8 1.8c-6.7-6.5-13.4-12.4-23.2-13.3-0.8-0.1-0.9-1.3 0-1.4z"/><path class="a" d="m245.9 32.8c-7.2-4.5-16-6.4-22.9-11.3-0.3-0.2-0.1-0.6 0.3-0.6 8.2 1.6 16.7 5.7 23.2 10.8 0.7 0.5 0.1 1.6-0.6 1.1z"/><path class="a" d="m230.4 25.2c-4.3-2.3-8.9-4-13.4-5.9-0.3-0.2-0.1-0.6 0.2-0.6 5.4-0.6 9.6 2.7 13.8 5.6 0.5 0.4 0 1.2-0.6 0.9z"/><path class="a" d="m237.2 20.5c6.7 0.8 13 0.9 19.7 0.8 0.5 0 0.7 0.6 0.3 0.8-6.2 3.1-13.9 0.6-20.1-1.1-0.3 0-0.2-0.6 0.1-0.5z"/><path class="a" d="m260.4 23.8q-0.3 0.1-0.5 0.3c0.3-0.2-0.2 0-0.3 0.1-1 1-2.2 1.1-3.5 0.8-1.7-0.4-2.7-2.4-2.3-4 0.5-1.9 2.3-2.6 4.1-2.3q1 0.1 1.7 0.9 0.3 0.3 0.5 0.6-0.4-0.5 0-0.1-0.6-0.4-1.1-0.7-0.3 0 0.2 0c2.4 0 3.2 3.2 1.2 4.4z"/><path class="a" d="m237.8 19.5c3.6 1.7 7.3 3 10.8 5 2.4 1.5 6.2 3.9 6.2 7 0 0.3-0.3 0.4-0.5 0.3-2.8-1.4-5-4.1-7.7-5.7-3.1-2-6.3-3.8-9.5-5.6-0.7-0.4 0-1.3 0.7-1z"/><path class="a" d="m255.2 36.1c-1.9 0-3.4-1.5-3.4-3.4 0-1.8 1.5-3.3 3.4-3.3 1.8 0 3.4 1.5 3.4 3.3 0 1.9-1.6 3.4-3.4 3.4z"/><path class="a" d="m139.3 17.5c0 4.4-3.6 8-8 8-4.4 0-8-3.6-8-8 0-4.4 3.6-8 8-8 4.4 0 8 3.6 8 8z"/><path class="a" d="m118.3 24.2l-6-6 6-6 6 6z"/><path class="a" d="m143.6 24.2l-6-6 6-6 6 6z"/></svg>