<svg version="1.2" xmlns="http://www.w3.org/2000/svg" viewBox="0 0 200 68" width="200" height="68"><style>.a{fill:#FFD700}</style><path class="a" d="m193.5 23.6c1.4 2.9-1.8 6.3-3.5 8.1-4.2 4.4-10.7 3.8-16 2.6-7.6-1.7-14-6-19.3-11.5-7-7.1-13.1-17.7-23-21-15-5.2-29.5 5.5-30.4 21.2-0.8 14.7 18.5 20.1 27.3 9.9 11.6-13.4-13.7-27.2-18.3-12.3-0.7 2.2 1.9 4.1 3.8 3 10.5-6.4 13.9 4.3 5.3 9.7-9.5 6-16.2-6.8-14.5-14.5 1.5-7 7.4-12.8 14.1-15.1 10.6-3.7 19.5 5 25.9 12.1 9.2 10.3 18.6 21.6 33.5 23 8.5 0.8 24.5-6.6 19.1-17.5-1.3-2.7-5.3-0.4-4 2.3z"/><path class="a" d="m179.9 21.3c1.2-0.8-0.1-0.3-1.5-0.7-2.6-0.7-2.9-2-1.2-4 3.7-4.2 13.6-2.8 15.3 2.6 3.3 10.8-10.7 17.5-19.4 17.1-0.2 0-0.2 0.2-0.1 0.3 7.5 3.2 17.6 2.3 23.1-4.3 6.7-8 1.4-17.3-7.1-20.6-6.5-2.6-20.3 0.2-18.2 9.7 0.8 3.3 4.8 5.3 7.9 5.5 2.6 0.1 6.4-2.8 3.6-5.3-0.6-0.6-1.6-0.8-2.4-0.3z"/><path class="a" d="m189 12.4c-1.4-0.2-2.8-1-4.2-1.3-1.4-0.2-2.7-0.2-4.1 0.1-2.7 0.5-5.1 2.4-6.2 5-1.1 2.4-0.8 5.3 0.9 7.2 1.7 2 5.1 4.3 7.5 2.1 0.5-0.5 0.5-1.2 0.2-1.9-1.1-2.6-7-2.6-4.8-6.6 0.9-1.7 2.9-2.2 4.6-2.6 1.7-0.4 4.3-1.3 6-1 0.8 0.2 0.9-0.9 0.1-1z"/><path class="a" d="m6 23.6c-1.4 2.9 1.8 6.3 3.5 8.1 4.2 4.4 10.7 3.8 16 2.6 7.6-1.7 14-6 19.3-11.5 6.9-7.1 13-17.7 23-21 15-5.2 29.5 5.5 30.4 21.2 0.8 14.7-18.5 20.1-27.3 9.9-11.6-13.4 13.7-27.2 18.3-12.3 0.7 2.2-1.9 4.1-3.8 3-10.5-6.4-13.9 4.3-5.4 9.7 9.5 6 16.3-6.8 14.6-14.5-1.5-7-7.4-12.8-14.1-15.1-10.6-3.7-19.5 5-25.9 12.1-9.2 10.3-18.6 21.6-33.5 23-8.5 0.8-24.5-6.6-19.1-17.5 1.3-2.7 5.3-0.4 4 2.3z"/><path class="a" d="m19.6 21.3c-1.2-0.8 0.1-0.3 1.5-0.7 2.5-0.7 2.9-2 1.1-4-3.6-4.2-13.5-2.8-15.2 2.6-3.3 10.8 10.7 17.5 19.4 17.1 0.1 0 0.2 0.2 0.1 0.3-7.5 3.2-17.6 2.3-23.2-4.3-6.6-8-1.3-17.3 7.2-20.6 6.5-2.6 20.3 0.2 18.2 9.7-0.8 3.3-4.8 5.3-7.9 5.5-2.6 0.1-6.4-2.8-3.7-5.3 0.7-0.6 1.7-0.8 2.5-0.3z"/><path class="a" d="m10.4 12.4c1.5-0.2 2.8-1 4.3-1.3 1.4-0.2 2.7-0.2 4 0.1 2.8 0.5 5.2 2.4 6.3 5 1 2.4 0.7 5.3-0.9 7.2-1.7 2-5.1 4.3-7.5 2.1-0.5-0.5-0.5-1.2-0.2-1.9 1.1-2.6 6.9-2.6 4.8-6.6-0.9-1.7-2.9-2.2-4.6-2.6-1.7-0.4-4.3-1.3-6-1-0.8 0.2-1-0.9-0.2-1z"/><path class="a" d="m101.1 35.2c2.4 1.5 4.7 3 7.1 4.6 2.6 1.9 7 4.6 8.3 7.8 0.6 1.5-2 2-3 2.1-2.5 0.3-4.4-1.8-5.7-3.6-2.4-3.3-3.2-8.1-6-11-0.4-0.4-1-0.1-1.1 0.4-0.5 5.1 2.9 11.9 6.4 15.3 3.1 3 10.3 3.7 12.2-1 1.6-3.8-3.4-7.3-5.9-9.1-3.6-2.7-7.9-4.3-11.8-6.5-0.6-0.3-1.1 0.6-0.5 1z"/><path class="a" d="m100.9 34.9c1 1.7 1.6 3.5 2.7 5 1 1.4 2.2 2.7 3.4 3.9q2.1 2 4.1 4c1.3 1.3 2.3 2.7 4.3 2.5 0.5 0 1.2-0.3 1.3-1 0.5-3.1-3.1-5.3-5.3-7.2q-2.1-1.8-4.4-3.6c-1.7-1.4-3.9-2.5-5.3-4.2-0.4-0.4-1.1 0.2-0.8 0.6z"/><path class="a" d="m115.5 46.9c-2.9-2.2-5.6-5.1-8.7-7-0.6-0.3-1.5 0.4-1 1 2.3 3 5.8 5.3 8.9 7.4 0.9 0.6 1.6-0.8 0.8-1.4z"/><path class="a" d="m98.5 35.2c-2.4 1.5-4.8 3-7.1 4.6-2.7 1.9-7 4.6-8.3 7.8-0.6 1.5 2 2 3 2.1 2.5 0.3 4.4-1.8 5.7-3.6 2.3-3.3 3.2-8.1 6-11 0.4-0.4 1-0.1 1 0.4 0.6 5.1-2.8 11.9-6.4 15.3-3.1 3-10.2 3.7-12.2-1-1.6-3.8 3.5-7.3 6-9.1 3.6-2.7 7.9-4.3 11.7-6.5 0.7-0.3 1.2 0.6 0.6 1z"/><path class="a" d="m98.7 34.9c-1.1 1.7-1.6 3.5-2.7 5-1.1 1.4-2.2 2.7-3.5 3.9q-2 2-4.1 4c-1.3 1.3-2.3 2.7-4.2 2.5-0.6 0-1.2-0.3-1.3-1-0.5-3.1 3.1-5.3 5.2-7.2q2.2-1.8 4.4-3.6c1.7-1.4 3.9-2.5 5.3-4.2 0.4-0.4 1.2 0.2 0.9 0.6z"/><path class="a" d="m84.1 46.9c2.9-2.2 5.6-5.1 8.7-7 0.6-0.3 1.5 0.4 1 1-2.3 3-5.9 5.3-8.9 7.4-0.9 0.6-1.7-0.8-0.8-1.4z"/><path class="a" d="m99.5 45.2c2.1 3.2 3.3 7.7 3.7 11.5 0.2 2.3-0.8 4.5-2.3 6.2-2.6 3.1-5.2-0.3-5.1-3 0.1-4.8 5.9-10.9 3.7-15.6 0-0.1-0.2-0.1-0.3 0-3.2 2.8-4.8 8.5-5.8 12.5-0.9 4-0.2 8.6 3.9 10.4 4.4 1.9 7.7-3.8 8.3-7.2 1.1-5.5-1.9-11.4-5.4-15.3-0.3-0.4-0.9 0.1-0.7 0.5z"/><path class="a" d="m98.8 45.8c-0.4 3.4-0.4 6.8-0.7 10.2-0.2 3-1.8 6.8 0.1 9.4 0.3 0.4 0.9 0.7 1.4 0.4 2.8-1.8 2.2-5.3 2.2-8.3-0.1-4-1-7.9-1.8-11.8-0.2-0.8-1.2-0.5-1.2 0.1z"/><path class="a" d="m98.9 64.3c0.2-2.4 0.1-4.8 0.6-7.2 0.5-2.2 1.5-5.1-0.3-6.9-0.6-0.6-1.5-0.6-2.2-0.3-2.6 1.3-2.9 6.1-3.2 8.7-0.3 2.7 0.9 6.5 4.2 6.6 0.5 0.1 0.8-0.4 0.9-0.9z"/></svg>