<svg version="1.2" xmlns="http://www.w3.org/2000/svg" viewBox="0 0 306 108" width="306" height="108"><style>.a{fill:#FFD700}</style><path class="a" d="m125.5 84.6c-9-1.3-10.2 12.8-5.2 17.9 7.1 7.4 18.2 7.1 25.7 0.5 7.1-6.3 7.7-17.7 5.8-26.2-2.6-12.1-13.4-18.9-24.8-21.6-15.6-3.7-32.6 2.3-47.6 6.2-16.9 4.3-34.8 8.4-52.3 5.2-16.2-3-25.4-16.9-21.6-33 2-8.2 8.4-11.3 16.3-11.3 6.2 0 11.1 3.3 13.4 9.2 1.1 2.8 0.6 6.1-0.7 8.7-3.6 7.7-3.1-2-8.2 1.9 2.3-1.8 1-6.7-2.3-5.3-10.7 4.5 0.8 16.4 9.1 12.8 13.2-5.9 10.6-22.5 0.2-29.7-9.8-6.6-24.6-2.1-30.2 7.6-5.4 9.4-3.2 23.9 3.6 32.1 9.6 11.6 27.3 12.4 41.1 11.3 17.7-1.4 34.5-7.4 51.7-11.2 18.4-4.1 44.3-2.7 49.2 19.6 1.6 7.3-0.1 15.7-5.3 21.1-3.3 3.6-8.6 4.4-13.3 3.8-4.4-0.6-7.6-3.7-8-8.3-0.1-1.1 0.7-6.2 2.7-6 3 0.3 3.7-4.9 0.7-5.3z"/><path class="a" d="m24.6 41.2c0.1-1.2 0.8-1.3 0-1.5 0.5 0.1 1 0.3 1.4 0.5 1.2 0.5 2.2 1.1 3.3 1.8 2.3 1.3 4.2 1.7 6.6 0.2 4.5-2.7 5.3-12.4 1.4-16-0.3-0.3-0.9-0.1-1 0.4-0.1 3.1-0.1 6-1 9-0.5 1.2-1.2 2.7-2.6 3.1 0.4-0.2 0.1-0.1-0.3-0.3q-0.8-0.4-1.6-0.8c-2-1.1-4.7-2.8-7-1.7-2.6 1.3-1.3 3.8-0.4 5.7 0.3 0.6 1.2 0.2 1.2-0.4z"/><path class="a" d="m27 37.9c-1.5-0.6-2.6-1.7-4.3-0.7-1.8 1.2-1.9 3.5-1.5 5.4q1.9-0.8 3.7-1.6c-0.3-0.7-0.3-1.3 0.2-1.9 1.4-1.7-0.3-4.5-2.4-3.2-1.5 0.9-2.9 2.2-3 4-0.1 1.7 1 3.2 2.3 4.2 2.7 2.2 7.4 4 10 1 0.5-0.4 0.3-1.2-0.3-1.4-1-0.3-1.9-0.8-2.9-1.1-1.1-0.2-2.1-0.6-3.1-1.1-0.7-0.3-1.5-0.8-1.9-1.5-0.1-0.1 0-0.2-0.1 0.1 0.1-0.3 0.5-0.5 1-0.7q-1-1.8-2-3.5c-2.4 1.7-2.7 4.7-1.3 7.2 1.1 2 4.4 0.6 3.7-1.6-0.3-1-0.1-2.9 1.5-2.4 0.6 0.1 1.1-0.9 0.4-1.2z"/><path class="a" d="m24 39c0.1 2.8 1 4.8 3.6 6.1 2.3 1.1 6.3 1.4 7.6-1.4 0.5-1.1-0.1-2.4-1.4-2.4-1.6-0.1-3 0.6-4.6 0.2-1.5-0.4-3.5-1.4-4.2-2.8-0.2-0.4-1-0.2-1 0.3z"/><path class="a" d="m28.4 42.9c2.3 0.3 4.6 0.5 6.8-0.3 0.9-0.4 0.7-1.5-0.2-1.6-2.1-0.3-4.2-0.2-6.3-0.4-1.3-0.1-1.6 2.1-0.3 2.3z"/><path class="a" d="m121.7 89.9c6.3-7.2 5.5 6.6 7.1 9 1.9 2.9 5.4 5.2 9 5.1 7.6-0.2 14.2-6.6 14.5-14.3 0.1-0.6-0.7-0.7-1-0.3-3 4.5-5.9 9.4-11.9 10.1-7.9 0.9-5.6-6.4-7.6-10.4-2.8-5.8-8.6-5.9-11.2 0-0.3 0.6 0.5 1.4 1.1 0.8z"/><path class="a" d="m143.5 100.5c-3.1 1.7-8.4 0.7-11.5-0.4-1.8-0.7-3.6-1.9-4.7-3.5-1.1-1.6-0.7-3.3-0.8-5.1-0.1-1.8-2.5-3.3-3.9-1.6-4.2 5.2 0.6 11.3 5.6 13.5 5.4 2.5 11.8 2.6 16-2 0.4-0.5-0.1-1.2-0.7-0.9z"/><path class="a" d="m123.6 89.5c-1.6 2.4-1.5 4.7-0.3 7.2 1 2.4 4.4 4.9 6.9 3.2 1.1-0.7 1.9-2.4 1-3.6-0.9-1.1-2.3-1.5-3-2.5-0.8-1.1-1.8-2.5-2.1-3.9-0.2-1.3-1.9-1.2-2.5-0.4z"/><path class="a" d="m125.9 90.8c-0.5 2.3-1.9 8.8 2.1 8.8 2.8-0.1 2.6-3.1 2.1-4.9-0.5-1.6-1.3-2.8-2.2-4.2-0.4-0.7-1.7-0.7-2 0.3z"/><path class="a" d="m125.2 88.8c-3.6 1.3-4.4 5.3-3.4 8.7 1.2 3.8 4.4 6 8.2 6q-0.5-1.8-1-3.7c-1.7 1-3-2.6-3.5-3.7-0.7-1.9-4-1.8-3.7 0.5 0.3 3.1 1.5 5.4 4.4 6.8 2.8 1.4 5.9 1.4 8.7 0 0.5-0.3 0.5-1.2 0-1.5-1.7-0.9-3.3-1.4-5-1.8-2-0.4-4.4-1.1-4.3-3.5q-1.9 0.2-3.8 0.5c1 4.6 3.7 8 8.8 6.4 1.5-0.5 2.1-2.9 0.4-3.7-3.6-1.7-4.6-5.6-3.9-9.1 0.2-1.1-0.7-2.4-1.9-1.9z"/><path class="a" d="m77.1 63c-7.2 0.8-14.6 0.6-19.1-5.9-1.5-2.2-2.4-8.7 1.7-9.2 1.7-0.2 3.4 3.8 4 4.9 1.7 3.4 2.5 6.8 5.5 9.5 2.8 2.5 7.7 3.9 10.6 0.9 0.7-0.7 0.1-1.7-0.7-1.8-4.7-0.6-8-1.2-10.2-5.9-1.1-2.3-2.1-4.6-3.5-6.8-1.7-3-5.5-6.1-8.8-3-4.6 4.3-3.5 9.4 0.1 14 5.3 6.9 13.1 5.4 20.5 3.9 0.4-0.1 0.3-0.7-0.1-0.6z"/><path class="a" d="m77.5 62.1c-3.7 2-8.5-0.1-11.4-2.6-3.3-2.8-4.1-6.3-5.6-10-0.9-2.4-4.5-2.2-4.6 0.6-0.2 5.4 4.3 10.4 8.4 13.3 4.8 3.4 9.1 2.5 13.6-0.7 0.4-0.2 0-0.8-0.4-0.6z"/><path class="a" d="m57.9 48.4c-1.7 2.2-1.7 4.8-1.1 7.4 0.5 2.4 3.3 6.1 6 6.1 0.9 0 1.9-0.7 2-1.7 0.1-1.4-1-2.2-2-3-2.5-2.5-2.8-5.3-3.6-8.5-0.2-0.5-1-0.8-1.3-0.3z"/><path class="a" d="m101.4 57.4c-5.5-0.3-9.5 2.5-12.6 6.8-2.9 4.1-3.4 10.7 1.2 13.9 4.2 2.8 7.6 1 8.8-3.7 0.5-2.1 0.5-4.4 0.6-6.6 0-1.6 0.2-3.4 0.9-4.9 0.7-1.5 2.5-2.3 3.8-3.3 0.6-0.5 0.2-1.6-0.5-1.8-9.2-2.4-7.3 11.3-8.5 16.3-0.7 2.8-2.7 1.7-4.1-0.2-1.4-1.9-0.8-4.5 0.1-6.5 1.6-3.5 5.9-9 10.3-8.7 0.8 0 0.8-1.3 0-1.3z"/><path class="a" d="m102.2 57.5c-4.2 0.3-7 2.3-8.9 6-1.9 3.7-2.7 9.4-0.5 13 1.1 2 4.5 1.2 4.4-1.2-0.1-5.3-0.4-13.6 5.4-16.3 0.7-0.4 0.3-1.5-0.4-1.5z"/><path class="a" d="m99.7 62.3c1.3-0.6 2.4-1.2 3.7-1.9 1.3-0.7 2.8-1.2 4.1-2.1 0.5-0.4 0.3-1.2-0.3-1.2-3.2-0.1-7.1 1.6-8.2 4.7-0.1 0.4 0.4 0.6 0.7 0.5z"/><path class="a" d="m124.5 55.4c-6.3-0.6-12.8-5.4-16.3-10.6-1.1-1.8-3-5.3-0.1-6.4 2.3-0.9 4.6-0.3 5.7 1.9 1.9 3.5 1.5 8.1 2.8 11.9 0.8 2.3 3.8 6.4 6.7 4.4 0.1 0 0.2-0.2 0.1-0.3-0.8-2.1-2.8-3.4-3.6-5.7-0.9-2.6-1-5.4-1.5-8.1-1.1-5.7-4.5-8.8-10.4-7.8-6.5 1-5.2 7.7-2.6 11.8 3.9 6.3 11.7 11 19.2 10.3 0.9-0.1 0.9-1.3 0-1.4z"/><path class="a" d="m121.4 55.3c-3.9-1.4-6.3-5.8-7.9-9.3-1.4-2.9-1.8-7.6-5.1-9-0.6-0.2-1.4 0.2-1.7 0.7-1.8 3.5 1.8 9.2 3.7 12.2 2.7 4.3 5.9 6.1 10.8 6.5 0.7 0.1 0.8-0.9 0.2-1.1z"/><path class="a" d="m149.5 76.1c-4-12.4-22.3-18.6-29.2-5.1-2.1 4 1.6 10.6 6.5 9.4 2.7-0.7 4.7-2.8 6.6-4.7 4.1-4.2 7.8-4.8 13.2-2.2 0.3 0.2 0.8-0.1 0.6-0.4-1.2-3.5-4.9-4.7-8.3-4.9-3.9-0.3-6.6 3-9.1 5.5-0.9 0.9-1.8 1.7-2.9 2.4-2.8 1.9-4.6-2.1-3.5-4.5 1.3-2.6 4.4-4.4 7.1-5.4 6.6-2.6 15.5 4.8 18.1 10.3 0.2 0.5 1.1 0.1 0.9-0.4z"/><path class="a" d="m142.1 68.9c-1.6-0.2-3-0.9-4.6-1.1-2.1-0.2-4.1-0.1-6.1 0.2-4 0.5-7.3 3.7-8.1 7.5-0.7 3.5 4.7 5 5.3 1.5 0.6-3 2.6-3.9 5.3-4.8 2.6-0.8 5.6-1.5 8.2-1.9 0.6-0.1 0.6-1.3 0-1.4z"/><path class="a" d="m103.4 55.8c-3.5 0.8-9.7-1.3-11.3-4.7-0.8-1.7-3.5-0.2-2.6 1.5 2.7 5 9.3 4.8 14.1 4.3 0.8 0 0.6-1.3-0.2-1.1z"/><path class="a" d="m91.3 45.7c1.2 2.8-1.7 4.3-4 3.8-1-0.3-1.6-1.1-1.9-2-0.2-0.6-0.2-0.7-0.1-1.3 0 0.2 0.2-0.5 0.1-0.2q0.2-0.3 0.4-0.5c-0.4 0.4 0.1 0 0.2-0.1 0 0 0.4-0.2 1-0.3-0.5 0.1 0.6 0 0.8 0-0.6 0 1.2 0.5 0.7 0.2 0.7 0.4 0.9 0.6 1.1 1.1 0.2 0.9-0.1 2.7 0.4 4 0.3 1 1.5 1.6 2.5 1 4.1-2.4 2.1-8.8-1.7-10.5-3.3-1.5-8-0.8-9.7 2.8-2.1 4.5 1.3 9.8 6.2 9.9 2.2 0 4.2-1.1 5.3-2.8 1.3-1.9 0.5-3.7-0.5-5.4-0.2-0.4-1-0.1-0.8 0.3z"/><path class="a" d="m83.3 41.5c-0.1-0.4-0.2-0.7-0.3-1.1q0 0.4 0 0.8 0.1-0.2 0.1-0.4-2.3 0.3-4.5 0.6c0.5 0.8 1.3 1.4 2.2 1.6 1.1 0.3 2.2-0.1 2.8-1.1 0.6-1 0.3-2.1-0.4-3-0.3-0.4-0.7-0.7-1.2-0.9-1.5-0.7-3.2-0.2-3.7 1.5-0.5 1.7 1.3 3.6 3.1 3q0.2 0 0.4-0.1-0.4 0-0.8 0c0.4 0.1 0.7 0.2 1.1 0.3 0.6 0.1 1.3-0.6 1.2-1.2z"/><path class="a" d="m67 64.9c-2.5 1.8-5 3.8-7 6.3-1 1.3-3.5 4.4-1.8 6 0.3 0.2 0.8 0.2 1-0.1 0.4-0.9 0.1-1.6 0.3-2.5 0.2-1.6 1.3-3 2.3-4.2 1.7-1.8 3.7-3.4 5.7-5 0.3-0.2-0.1-0.8-0.5-0.5z"/><path class="a" d="m64.4 66.9c-1.7 1.2-3.4 2.6-4.7 4.4-1.2 1.5-2.9 3.7-2.7 5.7 0 0.5 0.3 1 0.8 1.1 1.6 0.5 1.9-2.6 2.4-3.5 1.2-2.4 3-4.9 5-6.8 0.5-0.5-0.2-1.3-0.8-0.9z"/><path class="a" d="m58.9 76.7c2.8 1.3 4.1 3.6 2.7 6.4-1 2.2-3.4 4-5.9 4-2.7-0.1-4.4-4.4-2.5-6.3 0.9-0.9 2.5-1 3.7-0.6 1.6 0.4 2.5 2.2 4.1 2.7 0.7 0.1 1.4-0.1 1.7-0.7 1.6-3-1.6-5.8-4.1-6.7-2.8-1-5.9-0.1-8.1 1.7-4.5 3.7-1.4 11.5 3.3 13.3 4.2 1.6 8.8-1.9 10.7-5.3 1.1-1.9 1.4-4.1 0.5-6.1-0.9-2.2-3.5-3-5.6-3.5-0.6-0.1-1.1 0.8-0.5 1.1z"/><path class="a" d="m51.7 82.5c0.9-1.1 2.5-1 4-0.6 0.8 0.2 1.4 0.6 1.9 1.2-0.4-0.4 0 0.1 0.1 0.2-0.3-0.5 0 0 0 0.2-0.2-0.8-0.1 0.3 0-0.4q-0.2 0.4 0 0-0.2 0.5-0.4 0.9c-0.4 1.2 0.3 2.7 1.4 3.3 1.4 0.8 3 0.2 3.9-1 3-4.2-1.6-8.6-5.5-9.5-3.6-0.8-8.5 1.7-6.3 5.7 0.2 0.4 0.7 0.3 0.9 0z"/><path class="a" d="m52.2 82.8c0.5 0.2 1.4-0.1 1.7 0 0.7 0.2 1.3 0.4 1.6 0.7 0.6 0.5 0.8 0.9 0.9 1.3 0.2 0.7 0 0.3 0.2 1.2 0.1 0.6 0.4 1 0.8 1.4 0.4 0.5 1.1 0.6 1.7 0.5 2-0.6 2.4-2.8 1.8-4.6-0.6-1.6-1.8-2.9-3.3-3.7-1.5-0.9-3-0.8-4.5-0.1-1.2 0.5-2.6 2.6-0.9 3.3z"/><path class="a" d="m50.4 89.3c-0.3 0.6-0.4 1.2-0.5 1.8-0.1 1.4 1.2 2.6 2.6 2.6 1.8 0 2.6-1.6 2.4-3.2-0.1-0.9-0.7-1.6-1.4-2-1.1-0.6-2.4-0.2-3.1 0.8z"/><path class="a" d="m179.7 84.6c9-1.3 10.1 12.8 5.2 17.9-7.1 7.4-18.2 7.1-25.7 0.5-7.1-6.3-7.7-17.7-5.8-26.2 2.6-12.1 13.4-18.9 24.8-21.6 15.6-3.7 32.6 2.3 47.6 6.2 16.9 4.3 34.8 8.4 52.3 5.2 16.2-3 25.3-16.9 21.6-33-2-8.2-8.4-11.3-16.3-11.3-6.2 0-11.2 3.3-13.4 9.2-1.2 2.8-0.6 6.1 0.6 8.7 3.7 7.7 3.2-2 8.3 1.9-2.3-1.8-1-6.7 2.2-5.3 10.7 4.5-0.8 16.4-9 12.8-13.2-5.9-10.6-22.5-0.2-29.7 9.7-6.6 24.6-2.1 30.2 7.6 5.3 9.4 3.2 23.9-3.6 32.1-9.6 11.6-27.3 12.4-41.1 11.3-17.7-1.4-34.5-7.4-51.7-11.2-18.4-4.1-44.4-2.7-49.2 19.6-1.6 7.3 0 15.7 5.3 21.1 3.3 3.6 8.6 4.4 13.3 3.8 4.4-0.6 7.6-3.7 8-8.3 0.1-1.1-0.7-6.2-2.7-6-3 0.3-3.7-4.9-0.7-5.3z"/><path class="a" d="m280.5 41.2c0-1.2-0.7-1.3 0.1-1.5-0.5 0.1-1 0.3-1.5 0.5-1.1 0.5-2.2 1.1-3.2 1.8-2.3 1.3-4.2 1.7-6.6 0.2-4.5-2.7-5.3-12.4-1.5-16 0.4-0.3 1-0.1 1.1 0.4 0 3.1 0 6 1 9 0.5 1.2 1.2 2.7 2.6 3.1-0.4-0.2-0.1-0.1 0.3-0.3q0.8-0.4 1.6-0.8c2-1.1 4.6-2.8 7-1.7 2.6 1.3 1.3 3.8 0.4 5.7-0.3 0.6-1.2 0.2-1.3-0.4z"/><path class="a" d="m278.1 37.9c1.6-0.6 2.7-1.7 4.4-0.7 1.8 1.2 1.9 3.5 1.5 5.4q-1.9-0.8-3.7-1.6c0.3-0.7 0.3-1.3-0.3-1.9-1.3-1.7 0.4-4.5 2.5-3.2 1.5 0.9 2.9 2.2 3 4 0.1 1.7-1.1 3.2-2.3 4.2-2.7 2.2-7.4 4-10 1-0.5-0.4-0.3-1.2 0.3-1.4 1-0.3 1.8-0.8 2.9-1.1 1.1-0.2 2.1-0.6 3.1-1.1 0.7-0.3 1.5-0.8 1.9-1.5 0-0.1-0.1-0.2 0.1 0.1-0.1-0.3-0.5-0.5-1-0.7q1-1.8 2-3.5c2.4 1.7 2.7 4.7 1.3 7.2-1.1 2-4.4 0.6-3.7-1.6 0.3-1 0.1-2.9-1.5-2.4-0.6 0.1-1.1-0.9-0.5-1.2z"/><path class="a" d="m281.2 39c-0.2 2.8-1 4.8-3.7 6.1-2.3 1.1-6.2 1.4-7.5-1.4-0.5-1.1 0.1-2.4 1.4-2.4 1.6-0.1 3 0.6 4.6 0.2 1.4-0.4 3.5-1.4 4.2-2.8 0.2-0.4 1-0.2 1 0.3z"/><path class="a" d="m276.8 42.9c-2.3 0.3-4.6 0.5-6.8-0.3-0.9-0.4-0.7-1.5 0.2-1.6 2.1-0.3 4.2-0.2 6.3-0.4 1.3-0.1 1.6 2.1 0.3 2.3z"/><path class="a" d="m183.5 89.9c-6.3-7.2-5.5 6.6-7.1 9-1.9 2.9-5.4 5.2-9 5.1-7.6-0.2-14.2-6.6-14.5-14.3-0.1-0.6 0.7-0.7 1-0.3 3 4.5 5.9 9.4 11.8 10.1 8 0.9 5.7-6.4 7.7-10.4 2.8-5.8 8.6-5.9 11.2 0 0.2 0.6-0.5 1.4-1.1 0.8z"/><path class="a" d="m161.7 100.5c3.1 1.7 8.3 0.7 11.5-0.4 1.8-0.7 3.6-1.9 4.7-3.5 1.1-1.6 0.7-3.3 0.8-5.1 0.1-1.8 2.5-3.3 3.9-1.6 4.2 5.2-0.6 11.3-5.6 13.5-5.5 2.5-11.8 2.6-16-2-0.4-0.5 0.1-1.2 0.7-0.9z"/><path class="a" d="m181.6 89.5c1.6 2.4 1.4 4.7 0.3 7.2-1 2.4-4.4 4.9-6.9 3.2-1.1-0.7-1.9-2.4-1-3.6 0.9-1.1 2.2-1.5 2.9-2.5 0.9-1.1 1.9-2.5 2.1-3.9 0.2-1.3 2-1.2 2.6-0.4z"/><path class="a" d="m179.3 90.8c0.5 2.3 1.9 8.8-2.2 8.8-2.7-0.1-2.5-3.1-2-4.9 0.5-1.6 1.3-2.8 2.1-4.2 0.5-0.7 1.8-0.7 2.1 0.3z"/><path class="a" d="m180 88.8c3.6 1.3 4.4 5.3 3.4 8.7-1.2 3.8-4.4 6-8.2 6q0.5-1.8 1-3.7c1.7 1 3-2.6 3.4-3.7 0.7-1.9 4.1-1.8 3.8 0.5-0.3 3.1-1.5 5.4-4.4 6.8-2.8 1.4-5.9 1.4-8.7 0-0.5-0.3-0.5-1.2 0-1.5 1.6-0.9 3.2-1.4 5-1.8 2-0.4 4.3-1.1 4.3-3.5q1.9 0.2 3.8 0.5c-1 4.6-3.8 8-8.8 6.4-1.5-0.5-2.1-2.9-0.4-3.7 3.5-1.7 4.6-5.6 3.9-9.1-0.2-1.1 0.7-2.4 1.9-1.9z"/><path class="a" d="m228 63c7.2 0.8 14.7 0.6 19.2-5.9 1.5-2.2 2.4-8.7-1.7-9.2-1.7-0.2-3.4 3.8-4 4.9-1.7 3.4-2.6 6.8-5.5 9.5-2.8 2.5-7.7 3.9-10.6 0.9-0.7-0.7-0.1-1.7 0.7-1.8 4.7-0.6 8-1.2 10.2-5.9 1.1-2.3 2.1-4.6 3.4-6.8 1.8-3 5.6-6.1 8.8-3 4.6 4.3 3.6 9.4 0 14-5.3 6.9-13.1 5.4-20.5 3.9-0.4-0.1-0.3-0.7 0-0.6z"/><path class="a" d="m227.7 62.1c3.7 2 8.5-0.1 11.4-2.6 3.3-2.8 4.1-6.3 5.6-10 0.9-2.4 4.5-2.2 4.6 0.6 0.2 5.4-4.3 10.4-8.4 13.3-4.8 3.4-9.1 2.5-13.6-0.7-0.4-0.2 0-0.8 0.4-0.6z"/><path class="a" d="m247.3 48.4c1.7 2.2 1.7 4.8 1.1 7.4-0.5 2.4-3.3 6.1-6 6.1-1 0-1.9-0.7-2-1.7-0.1-1.4 1-2.2 1.9-3 2.6-2.5 2.9-5.3 3.7-8.5 0.2-0.5 1-0.8 1.3-0.3z"/><path class="a" d="m203.8 57.4c5.4-0.3 9.5 2.5 12.6 6.8 2.9 4.1 3.3 10.7-1.2 13.9-4.2 2.8-7.6 1-8.8-3.7-0.5-2.1-0.5-4.4-0.6-6.6 0-1.6-0.2-3.4-0.9-4.9-0.7-1.5-2.6-2.3-3.8-3.3-0.6-0.5-0.2-1.6 0.5-1.8 9.2-2.4 7.3 11.3 8.5 16.3 0.7 2.8 2.7 1.7 4.1-0.2 1.4-1.9 0.7-4.5-0.1-6.5-1.6-3.5-5.9-9-10.3-8.7-0.8 0-0.8-1.3 0-1.3z"/><path class="a" d="m203 57.5c4.2 0.3 7 2.3 8.9 6 1.8 3.7 2.7 9.4 0.5 13-1.2 2-4.5 1.2-4.4-1.2 0.1-5.3 0.4-13.6-5.4-16.3-0.7-0.4-0.4-1.5 0.4-1.5z"/><path class="a" d="m205.5 62.3c-1.3-0.6-2.5-1.2-3.7-1.9-1.4-0.7-2.8-1.2-4.1-2.1-0.5-0.4-0.3-1.2 0.3-1.2 3.1-0.1 7.1 1.6 8.2 4.7 0.1 0.4-0.4 0.6-0.7 0.5z"/><path class="a" d="m180.7 55.4c6.3-0.6 12.8-5.4 16.2-10.6 1.2-1.8 3.1-5.3 0.2-6.4-2.3-0.9-4.6-0.3-5.8 1.9-1.9 3.5-1.4 8.1-2.7 11.9-0.8 2.3-3.8 6.4-6.7 4.4-0.1 0-0.2-0.2-0.1-0.3 0.8-2.1 2.8-3.4 3.6-5.7 0.9-2.6 1-5.4 1.5-8.1 1.1-5.7 4.5-8.8 10.4-7.8 6.4 1 5.2 7.7 2.6 11.8-3.9 6.3-11.7 11-19.2 10.3-0.9-0.1-0.9-1.3 0-1.4z"/><path class="a" d="m183.8 55.3c3.9-1.4 6.2-5.8 7.9-9.3 1.4-2.9 1.8-7.6 5.1-9 0.6-0.2 1.4 0.2 1.7 0.7 1.8 3.5-1.8 9.2-3.7 12.2-2.7 4.3-5.9 6.1-10.8 6.5-0.7 0.1-0.8-0.9-0.2-1.1z"/><path class="a" d="m155.7 76.1c4-12.4 22.3-18.6 29.2-5.1 2.1 4-1.6 10.6-6.5 9.4-2.8-0.7-4.7-2.8-6.6-4.7-4.2-4.2-7.9-4.8-13.2-2.2-0.3 0.2-0.8-0.1-0.6-0.4 1.2-3.5 4.8-4.7 8.3-4.9 3.9-0.3 6.6 3 9.1 5.5 0.9 0.9 1.8 1.7 2.9 2.4 2.8 1.9 4.6-2.1 3.5-4.5-1.3-2.6-4.5-4.4-7.1-5.4-6.6-2.6-15.5 4.8-18.1 10.3-0.2 0.5-1.1 0.1-0.9-0.4z"/><path class="a" d="m163.1 68.9c1.6-0.2 3-0.9 4.6-1.1 2.1-0.2 4.1-0.1 6.1 0.2 4 0.5 7.3 3.7 8.1 7.5 0.7 3.5-4.7 5-5.3 1.5-0.6-3-2.6-3.9-5.4-4.8-2.5-0.8-5.5-1.5-8.1-1.9-0.6-0.1-0.6-1.3 0-1.4z"/><path class="a" d="m201.8 55.8c3.5 0.8 9.7-1.3 11.3-4.7 0.8-1.7 3.5-0.2 2.6 1.5-2.7 5-9.3 4.8-14.1 4.3-0.8 0-0.6-1.3 0.2-1.1z"/><path class="a" d="m213.9 45.7c-1.2 2.8 1.7 4.3 4 3.8 1-0.3 1.6-1.1 1.9-2 0.2-0.6 0.2-0.7 0.1-1.3 0 0.2-0.3-0.5-0.1-0.2q-0.2-0.3-0.4-0.5c0.4 0.4-0.1 0-0.2-0.1 0 0-0.4-0.2-1-0.3 0.5 0.1-0.6 0-0.9 0 0.7 0-1.1 0.5-0.6 0.2-0.7 0.4-0.9 0.6-1.1 1.1-0.2 0.9 0.1 2.7-0.4 4-0.4 1-1.5 1.6-2.5 1-4.1-2.4-2.1-8.8 1.7-10.5 3.3-1.5 8-0.8 9.7 2.8 2.1 4.5-1.3 9.8-6.2 9.9-2.2 0-4.2-1.1-5.3-2.8-1.3-1.9-0.5-3.7 0.5-5.4 0.2-0.4 0.9-0.1 0.8 0.3z"/><path class="a" d="m221.9 41.5c0-0.4 0.2-0.7 0.3-1.1q0 0.4 0 0.8-0.1-0.2-0.1-0.4 2.2 0.3 4.5 0.6c-0.5 0.8-1.3 1.4-2.2 1.6-1.1 0.3-2.3-0.1-2.8-1.1-0.6-1-0.3-2.1 0.4-3 0.3-0.4 0.7-0.7 1.2-0.9 1.5-0.7 3.2-0.2 3.7 1.5 0.5 1.7-1.3 3.6-3.1 3q-0.2 0-0.5-0.1 0.5 0 0.9 0c-0.4 0.1-0.7 0.2-1.1 0.3-0.6 0.1-1.3-0.6-1.2-1.2z"/><path class="a" d="m238.1 64.9c2.6 1.8 5.1 3.8 7.1 6.3 1 1.3 3.5 4.4 1.7 6-0.2 0.2-0.8 0.2-0.9-0.1-0.4-0.9-0.1-1.6-0.3-2.5-0.2-1.6-1.3-3-2.3-4.2-1.7-1.8-3.7-3.4-5.7-5-0.3-0.2 0.1-0.8 0.4-0.5z"/><path class="a" d="m240.7 66.9c1.8 1.2 3.5 2.6 4.8 4.4 1.2 1.5 2.9 3.7 2.7 5.7 0 0.5-0.3 1-0.8 1.1-1.7 0.5-1.9-2.6-2.4-3.5-1.3-2.4-3-4.9-5-6.8-0.5-0.5 0.2-1.3 0.7-0.9z"/><path class="a" d="m246.2 76.7c-2.7 1.3-4 3.6-2.6 6.4 1 2.2 3.4 4 5.8 4 2.8-0.1 4.5-4.4 2.6-6.3-0.9-0.9-2.5-1-3.7-0.6-1.6 0.4-2.5 2.2-4.2 2.7-0.6 0.1-1.3-0.1-1.6-0.7-1.6-3 1.6-5.8 4.1-6.7 2.8-1 5.8-0.1 8 1.7 4.6 3.7 1.5 11.5-3.2 13.3-4.2 1.6-8.8-1.9-10.7-5.3-1.1-1.9-1.4-4.1-0.5-6.1 0.9-2.2 3.5-3 5.6-3.5 0.6-0.1 1.1 0.8 0.4 1.1z"/><path class="a" d="m253.5 82.5c-0.9-1.1-2.5-1-4-0.6-0.8 0.2-1.4 0.6-1.9 1.2 0.4-0.4-0.1 0.1-0.1 0.2 0.3-0.5 0 0 0 0.2 0.1-0.8 0.1 0.3 0-0.4q0.1 0.4 0 0 0.2 0.5 0.3 0.9c0.5 1.2-0.2 2.7-1.3 3.3-1.4 0.8-3 0.2-3.9-1-3-4.2 1.6-8.6 5.5-9.5 3.5-0.8 8.5 1.7 6.3 5.7-0.2 0.4-0.7 0.3-0.9 0z"/><path class="a" d="m252.9 82.8c-0.5 0.2-1.3-0.1-1.6 0-0.7 0.2-1.3 0.4-1.7 0.7-0.5 0.5-0.7 0.9-0.8 1.3-0.2 0.7 0 0.3-0.2 1.2-0.1 0.6-0.4 1-0.8 1.4-0.4 0.5-1.1 0.6-1.7 0.5-2-0.6-2.4-2.8-1.8-4.6 0.6-1.6 1.8-2.9 3.3-3.7 1.5-0.9 3-0.8 4.5-0.1 1.2 0.5 2.6 2.6 0.8 3.3z"/><path class="a" d="m254.7 89.3c0.4 0.6 0.5 1.2 0.6 1.8 0.1 1.4-1.3 2.6-2.6 2.6-1.8 0-2.7-1.6-2.4-3.2 0.1-0.9 0.7-1.6 1.4-2 1.1-0.6 2.4-0.2 3 0.8z"/><path class="a" d="m153.6 81.6c-2.1-10.8-8-18.9-12.9-28.5-7.2-14.1-5.1-28-3.4-43 0.5-4.1 1.1-2.2 3.7 0.1 2.7 2.3 4.8 5.3 6.8 8.3 4 6 5.7 13 6.5 20.1 1.8 14.4-3.8 28.2-3.2 42.3 0 0.1 0.2 0.1 0.2 0 9.7-24.7 10-60.9-14.7-76.9-0.8-0.6-1.7 0.3-1.5 1.1 1.2 7.6-2.2 16-2.2 23.7 0 6.3 0.9 12.6 2.8 18.6 3.9 12.3 14.1 21.6 17 34.4 0.2 0.6 1 0.3 0.9-0.2z"/><path class="a" d="m151.7 81.5c0.8-4.6 0.3-8.9-0.3-13.5-1.1-8-1.8-16-3-24-2-12.5-5.4-27.5-11.6-38.7-0.1-0.1-0.4 0-0.3 0.1 1 12.2 7.3 24 9.8 36 2.7 13.1 3.2 26.9 5 40.1 0 0.2 0.4 0.2 0.4 0z"/><path class="a" d="m157.4 38.5c1.3-11.6 4.8-20.8 11.3-30.5 0.2-0.3 3.8-5.2 3.9-4.9 0.8 2 1.2 4.1 1.7 6.2 1 5.3 0.9 10.8 0.5 16.1-0.8 10.3-4.5 19.5-9.9 28.3-5.1 8.3-11.7 16.1-13.7 25.9-0.1 0.6 0.8 1.1 1.1 0.5 6.6-13.9 17.2-26.1 21.9-40.7 3.9-12.1 4.9-27.2-0.8-38.8-0.3-0.6-1.1-0.5-1.4 0-8.2 11.1-17.1 23.4-15.4 37.9 0.1 0.5 0.8 0.5 0.8 0z"/><path class="a" d="m151.5 81.8c0.1 0 0.1-0.2 0-0.2-0.1 0-0.1 0.2 0 0.2z"/><path class="a" d="m151.5 80.7c4.5-12.6 7.9-25.6 11.6-38.5 3.6-12.7 9.5-25.6 9.8-39 0-0.5-0.8-0.6-0.9-0.1-6.5 25.9-14 51.6-21.1 77.4-0.1 0.4 0.5 0.5 0.6 0.2z"/><path class="a" d="m135.5 37.6c-1.2-9.9-8.1-17.1-16.7-21.7-0.5-0.3-1.1 0.2-1 0.7 3 11.3 2.5 22.9 8.4 33.2 4.3 7.5 14.1 12.9 20.5 18.3 0.1 0.1 0.4 0 0.3-0.2-1.5-3.9-3.9-6.1-7.2-8.7-6.6-5.4-12-9.8-15.1-18.1-2.6-7-2.9-14.8-4.8-22 0.2 0.4 6.8 5.1 7.7 6 3.4 3.5 5.8 8 6.9 12.7 0.1 0.6 1.1 0.4 1-0.2z"/><path class="a" d="m146.9 68c-3.8-8.3-9.1-15.7-13.3-23.9-4.3-8.6-8.3-16.9-13.4-25.1-0.3-0.5-1-0.1-0.8 0.4 9.1 16.5 16.5 33.2 26.8 49 0.3 0.4 0.9 0.1 0.7-0.4z"/><path class="a" d="m157.2 35.7c-0.2 2-0.6 3.9-0.7 5.9-0.1 2 0.1 4 0.1 6 0 0.1 0.2 0.1 0.2 0 0.3-1.7 0.7-3.4 0.9-5.1 0.3-2.3 0.2-4.5 0.2-6.8 0-0.4-0.6-0.4-0.7 0z"/><path class="a" d="m174.7 36.4c2.9-7 7.6-12.3 12.2-18.1 0.3-0.5-0.9 7-1.1 8.1-0.9 4.5-2.8 8.7-4.8 12.8-2.9 6.2-6.4 12.1-11.2 17-4 4.1-8.6 7.2-11.6 12-0.3 0.6 0.4 1 0.8 0.7 15.5-13.4 31.2-31.3 29.7-53.3 0-0.9-1.1-1.2-1.6-0.4-4.9 7.1-11.2 12.2-13.1 21-0.1 0.4 0.5 0.6 0.7 0.2z"/><path class="a" d="m158.1 71.2c2.1 0 2.1-3.2 0-3.2-2.1 0-2.1 3.2 0 3.2z"/><path class="a" d="m160 67c10.3-14.2 23.8-30 27.1-47.7 0.1-0.5-0.5-0.7-0.7-0.2-6.3 18-17.4 31.4-26.8 47.6-0.2 0.3 0.2 0.5 0.4 0.3z"/></svg>